<svg width="218" height="247" viewBox="0 0 218 247" fill="none" xmlns="http://www.w3.org/2000/svg">
<path d="M11.5547 156.223C11.5547 155.324 11.3164 154.684 10.8398 154.301C10.3711 153.918 9.71094 153.727 8.85938 153.727H5.49609V158.812H8.85938C9.71094 158.812 10.3711 158.605 10.8398 158.191C11.3164 157.777 11.5547 157.121 11.5547 156.223ZM15.1289 156.199C15.1289 158.238 14.6133 159.68 13.582 160.523C12.5508 161.367 11.0781 161.789 9.16406 161.789H5.49609V168H1.91016V150.727H9.43359C11.168 150.727 12.5508 151.172 13.582 152.062C14.6133 152.953 15.1289 154.332 15.1289 156.199ZM24.5039 154.922C24.5664 154.922 24.6172 154.926 24.6562 154.934C24.7031 154.934 24.8008 154.938 24.9492 154.945V158.367C24.7383 158.344 24.5508 158.328 24.3867 158.32C24.2227 158.312 24.0898 158.309 23.9883 158.309C22.6445 158.309 21.7422 158.746 21.2812 159.621C21.0234 160.113 20.8945 160.871 20.8945 161.895V168H17.5312V155.227H20.7188V157.453C21.2344 156.602 21.6836 156.02 22.0664 155.707C22.6914 155.184 23.5039 154.922 24.5039 154.922ZM32.6484 165.645C33.625 165.645 34.375 165.297 34.8984 164.602C35.4219 163.906 35.6836 162.918 35.6836 161.637C35.6836 160.355 35.4219 159.371 34.8984 158.684C34.375 157.988 33.625 157.641 32.6484 157.641C31.6719 157.641 30.918 157.988 30.3867 158.684C29.8633 159.371 29.6016 160.355 29.6016 161.637C29.6016 162.918 29.8633 163.906 30.3867 164.602C30.918 165.297 31.6719 165.645 32.6484 165.645ZM39.1875 161.637C39.1875 163.512 38.6484 165.117 37.5703 166.453C36.4922 167.781 34.8555 168.445 32.6602 168.445C30.4648 168.445 28.8281 167.781 27.75 166.453C26.6719 165.117 26.1328 163.512 26.1328 161.637C26.1328 159.793 26.6719 158.195 27.75 156.844C28.8281 155.492 30.4648 154.816 32.6602 154.816C34.8555 154.816 36.4922 155.492 37.5703 156.844C38.6484 158.195 39.1875 159.793 39.1875 161.637ZM46.3008 150.551C46.5117 150.551 46.7031 150.559 46.875 150.574C47.0469 150.582 47.2812 150.598 47.5781 150.621V153.34C47.3906 153.316 47.0742 153.301 46.6289 153.293C46.1914 153.277 45.8867 153.375 45.7148 153.586C45.5508 153.789 45.4688 154.016 45.4688 154.266C45.4688 154.516 45.4688 154.875 45.4688 155.344H47.6602V157.699H45.4688V168H42.1406V157.699H40.2773V155.344H42.1055V154.523C42.1055 153.156 42.3359 152.215 42.7969 151.699C43.2812 150.934 44.4492 150.551 46.3008 150.551ZM54.6211 157.641C53.8477 157.641 53.2461 157.883 52.8164 158.367C52.3945 158.852 52.1289 159.508 52.0195 160.336H57.2109C57.1562 159.453 56.8867 158.785 56.4023 158.332C55.9258 157.871 55.332 157.641 54.6211 157.641ZM54.6211 154.887C55.6836 154.887 56.6406 155.086 57.4922 155.484C58.3438 155.883 59.0469 156.512 59.6016 157.371C60.1016 158.129 60.4258 159.008 60.5742 160.008C60.6602 160.594 60.6953 161.438 60.6797 162.539H51.9375C51.9844 163.82 52.3867 164.719 53.1445 165.234C53.6055 165.555 54.1602 165.715 54.8086 165.715C55.4961 165.715 56.0547 165.52 56.4844 165.129C56.7188 164.918 56.9258 164.625 57.1055 164.25H60.5156C60.4297 165.008 60.0352 165.777 59.332 166.559C58.2383 167.801 56.707 168.422 54.7383 168.422C53.1133 168.422 51.6797 167.898 50.4375 166.852C49.1953 165.805 48.5742 164.102 48.5742 161.742C48.5742 159.531 49.1328 157.836 50.25 156.656C51.375 155.477 52.832 154.887 54.6211 154.887ZM65.543 163.922C65.6133 164.516 65.7656 164.938 66 165.188C66.4141 165.633 67.1797 165.855 68.2969 165.855C68.9531 165.855 69.4727 165.758 69.8555 165.562C70.2461 165.367 70.4414 165.074 70.4414 164.684C70.4414 164.309 70.2852 164.023 69.9727 163.828C69.6602 163.633 68.5 163.297 66.4922 162.82C65.0469 162.461 64.0273 162.012 63.4336 161.473C62.8398 160.941 62.543 160.176 62.543 159.176C62.543 157.996 63.0039 156.984 63.9258 156.141C64.8555 155.289 66.1602 154.863 67.8398 154.863C69.4336 154.863 70.7305 155.184 71.7305 155.824C72.7383 156.457 73.3164 157.555 73.4648 159.117H70.125C70.0781 158.688 69.957 158.348 69.7617 158.098C69.3945 157.645 68.7695 157.418 67.8867 157.418C67.1602 157.418 66.6406 157.531 66.3281 157.758C66.0234 157.984 65.8711 158.25 65.8711 158.555C65.8711 158.938 66.0352 159.215 66.3633 159.387C66.6914 159.566 67.8516 159.875 69.8438 160.312C71.1719 160.625 72.168 161.098 72.832 161.73C73.4883 162.371 73.8164 163.172 73.8164 164.133C73.8164 165.398 73.3438 166.434 72.3984 167.238C71.4609 168.035 70.0078 168.434 68.0391 168.434C66.0312 168.434 64.5469 168.012 63.5859 167.168C62.6328 166.316 62.1562 165.234 62.1562 163.922H65.543ZM78.9023 163.922C78.9727 164.516 79.125 164.938 79.3594 165.188C79.7734 165.633 80.5391 165.855 81.6562 165.855C82.3125 165.855 82.832 165.758 83.2148 165.562C83.6055 165.367 83.8008 165.074 83.8008 164.684C83.8008 164.309 83.6445 164.023 83.332 163.828C83.0195 163.633 81.8594 163.297 79.8516 162.82C78.4062 162.461 77.3867 162.012 76.793 161.473C76.1992 160.941 75.9023 160.176 75.9023 159.176C75.9023 157.996 76.3633 156.984 77.2852 156.141C78.2148 155.289 79.5195 154.863 81.1992 154.863C82.793 154.863 84.0898 155.184 85.0898 155.824C86.0977 156.457 86.6758 157.555 86.8242 159.117H83.4844C83.4375 158.688 83.3164 158.348 83.1211 158.098C82.7539 157.645 82.1289 157.418 81.2461 157.418C80.5195 157.418 80 157.531 79.6875 157.758C79.3828 157.984 79.2305 158.25 79.2305 158.555C79.2305 158.938 79.3945 159.215 79.7227 159.387C80.0508 159.566 81.2109 159.875 83.2031 160.312C84.5312 160.625 85.5273 161.098 86.1914 161.73C86.8477 162.371 87.1758 163.172 87.1758 164.133C87.1758 165.398 86.7031 166.434 85.7578 167.238C84.8203 168.035 83.3672 168.434 81.3984 168.434C79.3906 168.434 77.9062 168.012 76.9453 167.168C75.9922 166.316 75.5156 165.234 75.5156 163.922H78.9023ZM93.0938 153.703H89.707V150.621H93.0938V153.703ZM89.707 155.227H93.0938V168H89.707V155.227ZM102.07 165.645C103.047 165.645 103.797 165.297 104.32 164.602C104.844 163.906 105.105 162.918 105.105 161.637C105.105 160.355 104.844 159.371 104.32 158.684C103.797 157.988 103.047 157.641 102.07 157.641C101.094 157.641 100.34 157.988 99.8086 158.684C99.2852 159.371 99.0234 160.355 99.0234 161.637C99.0234 162.918 99.2852 163.906 99.8086 164.602C100.34 165.297 101.094 165.645 102.07 165.645ZM108.609 161.637C108.609 163.512 108.07 165.117 106.992 166.453C105.914 167.781 104.277 168.445 102.082 168.445C99.8867 168.445 98.25 167.781 97.1719 166.453C96.0938 165.117 95.5547 163.512 95.5547 161.637C95.5547 159.793 96.0938 158.195 97.1719 156.844C98.25 155.492 99.8867 154.816 102.082 154.816C104.277 154.816 105.914 155.492 106.992 156.844C108.07 158.195 108.609 159.793 108.609 161.637ZM118.09 154.922C119.41 154.922 120.488 155.27 121.324 155.965C122.168 156.652 122.59 157.797 122.59 159.398V168H119.168V160.23C119.168 159.559 119.078 159.043 118.898 158.684C118.57 158.027 117.945 157.699 117.023 157.699C115.891 157.699 115.113 158.18 114.691 159.141C114.473 159.648 114.363 160.297 114.363 161.086V168H111.035V155.25H114.258V157.113C114.688 156.457 115.094 155.984 115.477 155.695C116.164 155.18 117.035 154.922 118.09 154.922ZM132.727 161.789C132.516 161.922 132.301 162.031 132.082 162.117C131.871 162.195 131.578 162.27 131.203 162.34L130.453 162.48C129.75 162.605 129.246 162.758 128.941 162.938C128.426 163.242 128.168 163.715 128.168 164.355C128.168 164.926 128.324 165.34 128.637 165.598C128.957 165.848 129.344 165.973 129.797 165.973C130.516 165.973 131.176 165.762 131.777 165.34C132.387 164.918 132.703 164.148 132.727 163.031V161.789ZM130.699 160.23C131.316 160.152 131.758 160.055 132.023 159.938C132.5 159.734 132.738 159.418 132.738 158.988C132.738 158.465 132.555 158.105 132.188 157.91C131.828 157.707 131.297 157.605 130.594 157.605C129.805 157.605 129.246 157.801 128.918 158.191C128.684 158.48 128.527 158.871 128.449 159.363H125.227C125.297 158.246 125.609 157.328 126.164 156.609C127.047 155.484 128.562 154.922 130.711 154.922C132.109 154.922 133.352 155.199 134.438 155.754C135.523 156.309 136.066 157.355 136.066 158.895V164.754C136.066 165.16 136.074 165.652 136.09 166.23C136.113 166.668 136.18 166.965 136.289 167.121C136.398 167.277 136.562 167.406 136.781 167.508V168H133.148C133.047 167.742 132.977 167.5 132.938 167.273C132.898 167.047 132.867 166.789 132.844 166.5C132.383 167 131.852 167.426 131.25 167.777C130.531 168.191 129.719 168.398 128.812 168.398C127.656 168.398 126.699 168.07 125.941 167.414C125.191 166.75 124.816 165.812 124.816 164.602C124.816 163.031 125.422 161.895 126.633 161.191C127.297 160.809 128.273 160.535 129.562 160.371L130.699 160.23ZM142.453 168H139.113V150.727H142.453V168ZM151.922 159.504C151.922 156.488 152.73 154.164 154.348 152.531C155.754 151.109 157.543 150.398 159.715 150.398C162.621 150.398 164.746 151.352 166.09 153.258C166.832 154.328 167.23 155.402 167.285 156.48H163.676C163.441 155.652 163.141 155.027 162.773 154.605C162.117 153.855 161.145 153.48 159.855 153.48C158.543 153.48 157.508 154.012 156.75 155.074C155.992 156.129 155.613 157.625 155.613 159.562C155.613 161.5 156.012 162.953 156.809 163.922C157.613 164.883 158.633 165.363 159.867 165.363C161.133 165.363 162.098 164.949 162.762 164.121C163.129 163.676 163.434 163.008 163.676 162.117H167.25C166.938 164 166.137 165.531 164.848 166.711C163.566 167.891 161.922 168.48 159.914 168.48C157.43 168.48 155.477 167.684 154.055 166.09C152.633 164.488 151.922 162.293 151.922 159.504ZM176.789 154.898C177.578 154.898 178.293 155.035 178.934 155.309C179.582 155.582 180.113 156 180.527 156.562C180.879 157.039 181.094 157.531 181.172 158.039C181.25 158.539 181.289 159.359 181.289 160.5V168H177.879V160.23C177.879 159.543 177.762 158.988 177.527 158.566C177.223 157.973 176.645 157.676 175.793 157.676C174.91 157.676 174.238 157.973 173.777 158.566C173.324 159.152 173.098 159.992 173.098 161.086V168H169.77V150.785H173.098V156.891C173.582 156.148 174.141 155.633 174.773 155.344C175.414 155.047 176.086 154.898 176.789 154.898ZM189.457 157.641C188.684 157.641 188.082 157.883 187.652 158.367C187.23 158.852 186.965 159.508 186.855 160.336H192.047C191.992 159.453 191.723 158.785 191.238 158.332C190.762 157.871 190.168 157.641 189.457 157.641ZM189.457 154.887C190.52 154.887 191.477 155.086 192.328 155.484C193.18 155.883 193.883 156.512 194.438 157.371C194.938 158.129 195.262 159.008 195.41 160.008C195.496 160.594 195.531 161.438 195.516 162.539H186.773C186.82 163.82 187.223 164.719 187.98 165.234C188.441 165.555 188.996 165.715 189.645 165.715C190.332 165.715 190.891 165.52 191.32 165.129C191.555 164.918 191.762 164.625 191.941 164.25H195.352C195.266 165.008 194.871 165.777 194.168 166.559C193.074 167.801 191.543 168.422 189.574 168.422C187.949 168.422 186.516 167.898 185.273 166.852C184.031 165.805 183.41 164.102 183.41 161.742C183.41 159.531 183.969 157.836 185.086 156.656C186.211 155.477 187.668 154.887 189.457 154.887ZM202.488 150.551C202.699 150.551 202.891 150.559 203.062 150.574C203.234 150.582 203.469 150.598 203.766 150.621V153.34C203.578 153.316 203.262 153.301 202.816 153.293C202.379 153.277 202.074 153.375 201.902 153.586C201.738 153.789 201.656 154.016 201.656 154.266C201.656 154.516 201.656 154.875 201.656 155.344H203.848V157.699H201.656V168H198.328V157.699H196.465V155.344H198.293V154.523C198.293 153.156 198.523 152.215 198.984 151.699C199.469 150.934 200.637 150.551 202.488 150.551ZM208.371 163.922C208.441 164.516 208.594 164.938 208.828 165.188C209.242 165.633 210.008 165.855 211.125 165.855C211.781 165.855 212.301 165.758 212.684 165.562C213.074 165.367 213.27 165.074 213.27 164.684C213.27 164.309 213.113 164.023 212.801 163.828C212.488 163.633 211.328 163.297 209.32 162.82C207.875 162.461 206.855 162.012 206.262 161.473C205.668 160.941 205.371 160.176 205.371 159.176C205.371 157.996 205.832 156.984 206.754 156.141C207.684 155.289 208.988 154.863 210.668 154.863C212.262 154.863 213.559 155.184 214.559 155.824C215.566 156.457 216.145 157.555 216.293 159.117H212.953C212.906 158.688 212.785 158.348 212.59 158.098C212.223 157.645 211.598 157.418 210.715 157.418C209.988 157.418 209.469 157.531 209.156 157.758C208.852 157.984 208.699 158.25 208.699 158.555C208.699 158.938 208.863 159.215 209.191 159.387C209.52 159.566 210.68 159.875 212.672 160.312C214 160.625 214.996 161.098 215.66 161.73C216.316 162.371 216.645 163.172 216.645 164.133C216.645 165.398 216.172 166.434 215.227 167.238C214.289 168.035 212.836 168.434 210.867 168.434C208.859 168.434 207.375 168.012 206.414 167.168C205.461 166.316 204.984 165.234 204.984 163.922H208.371Z" fill="white"/>
<path d="M96.918 230.906H93.7148V237H88.2656V230.906H77.0547V226.043L87.4648 208.855H93.7148V226.551H96.918V230.906ZM88.2656 226.551V214.324L81.1758 226.551H88.2656ZM99.5156 237C99.5677 234.969 100.004 233.113 100.824 231.434C101.618 229.546 103.493 227.547 106.449 225.438C109.014 223.602 110.674 222.286 111.43 221.492C112.589 220.255 113.168 218.901 113.168 217.43C113.168 216.232 112.836 215.236 112.172 214.441C111.508 213.647 110.557 213.25 109.32 213.25C107.628 213.25 106.475 213.882 105.863 215.145C105.512 215.874 105.303 217.033 105.238 218.621H99.8281C99.9193 216.212 100.355 214.266 101.137 212.781C102.621 209.956 105.258 208.543 109.047 208.543C112.042 208.543 114.424 209.376 116.195 211.043C117.966 212.697 118.852 214.891 118.852 217.625C118.852 219.721 118.227 221.583 116.977 223.211C116.156 224.292 114.809 225.496 112.934 226.824L110.707 228.406C109.314 229.396 108.357 230.112 107.836 230.555C107.328 230.997 106.898 231.512 106.547 232.098H118.91V237H99.5156ZM127.465 223.113C127.465 226.368 127.732 228.862 128.266 230.594C128.799 232.312 129.893 233.172 131.547 233.172C133.201 233.172 134.281 232.312 134.789 230.594C135.31 228.862 135.57 226.368 135.57 223.113C135.57 219.702 135.31 217.176 134.789 215.535C134.281 213.895 133.201 213.074 131.547 213.074C129.893 213.074 128.799 213.895 128.266 215.535C127.732 217.176 127.465 219.702 127.465 223.113ZM131.547 208.484C135.154 208.484 137.68 209.754 139.125 212.293C140.583 214.832 141.312 218.439 141.312 223.113C141.312 227.788 140.583 231.388 139.125 233.914C137.68 236.44 135.154 237.703 131.547 237.703C127.94 237.703 125.408 236.44 123.949 233.914C122.504 231.388 121.781 227.788 121.781 223.113C121.781 218.439 122.504 214.832 123.949 212.293C125.408 209.754 127.94 208.484 131.547 208.484Z" fill="white"/>
<path d="M162.789 81.4836C159.895 83.506 156.57 84.8207 153.079 85.3223C149.588 85.824 146.028 85.4987 142.685 84.3725C142.382 84.2642 142.058 84.2308 141.739 84.2752C141.421 84.3196 141.118 84.4403 140.856 84.6272L131.858 91.0289L134.173 94.3009L142.337 88.4831C146.153 89.6014 150.169 89.8515 154.093 89.2154C158.017 88.5793 161.75 87.0728 165.02 84.8058C166.199 84.007 167.316 83.1205 168.362 82.1537L165.65 79.2046C164.755 80.0358 163.799 80.7977 162.789 81.4836Z" fill="#FF9F0D"/>
<path d="M142.655 51.5438C139.793 53.3784 137.501 55.9806 136.037 59.0554C134.574 62.1302 133.998 65.5548 134.375 68.9412L109.029 85.2432L83.678 68.9512C84.0632 65.5638 83.4901 62.1359 82.0245 59.0599C80.5589 55.984 78.2598 53.3841 75.3904 51.5579C71.5815 48.9237 66.9498 47.7648 62.3542 48.2959C60.1864 48.5088 58.0923 49.1993 56.2212 50.3181C54.3502 51.437 52.7484 52.9565 51.5302 54.7682C50.3121 56.5799 49.5076 58.6391 49.1743 60.7989C48.841 62.9586 48.987 65.1655 49.6019 67.262C50.8338 71.7341 53.6406 75.6061 57.5016 78.1594C60.2661 80.1479 63.5333 81.3142 66.9283 81.5246C70.3232 81.735 73.7086 80.981 76.696 79.3491L96.3723 93.3661L77.6477 105.413C76.7627 105.977 75.9995 106.714 75.4034 107.58C74.8073 108.445 74.3904 109.422 74.1775 110.452C73.9646 111.483 73.9599 112.545 74.1638 113.577C74.3677 114.609 74.7759 115.59 75.3644 116.461C75.9506 117.33 76.7039 118.073 77.5802 118.645C78.4565 119.218 79.438 119.61 80.467 119.796C81.4961 119.983 82.5521 119.962 83.5728 119.734C84.5936 119.505 85.5586 119.075 86.4112 118.467L109.029 102.374L131.646 118.479C132.5 119.106 133.47 119.553 134.5 119.794C135.53 120.035 136.598 120.065 137.64 119.882C138.681 119.699 139.675 119.307 140.563 118.73C141.45 118.152 142.212 117.401 142.802 116.521C143.393 115.641 143.801 114.65 144.001 113.608C144.201 112.566 144.19 111.494 143.967 110.457C143.745 109.42 143.316 108.438 142.706 107.571C142.097 106.704 141.319 105.969 140.419 105.411L121.673 93.3741L141.363 79.3511C144.35 80.9836 147.735 81.7383 151.13 81.5286C154.525 81.3188 157.793 80.1533 160.558 78.1655C168.775 72.6004 171.458 62.1002 166.534 54.7577C161.609 47.4152 150.89 45.9788 142.655 51.5438ZM84.0959 115.203C83.2416 115.78 82.1963 115.999 81.1833 115.814C80.1702 115.628 79.2695 115.053 78.6734 114.21C78.3849 113.783 78.1848 113.302 78.0849 112.796C77.9851 112.29 77.9875 111.769 78.0921 111.264C78.1967 110.758 78.4014 110.279 78.6939 109.855C78.9864 109.431 79.3609 109.07 79.7951 108.793L99.8872 95.8657L105.564 99.9061L84.0959 115.203ZM139.96 111.265C140.116 112.026 140.041 112.817 139.743 113.535C139.446 114.252 138.94 114.864 138.292 115.289C137.643 115.714 136.883 115.934 136.108 115.919C135.334 115.905 134.581 115.656 133.949 115.207L77.8877 75.2846C77.5458 75.0414 77.1365 74.9121 76.7174 74.915C76.2984 74.9179 75.8908 75.0528 75.5523 75.3007C73.1837 76.8517 70.3988 77.6383 67.5716 77.5547C64.7444 77.4711 62.0105 76.5215 59.737 74.8332C56.678 72.82 54.4503 69.7623 53.4668 66.2269C52.9961 64.6825 52.8756 63.0521 53.114 61.4549C53.3523 59.8577 53.9436 58.3343 54.8444 56.9959C55.7452 55.6576 56.9329 54.5383 58.3205 53.7199C59.7081 52.9016 61.2605 52.4048 62.864 52.266C66.4991 51.8567 70.1588 52.7832 73.165 54.874C75.575 56.3582 77.4746 58.5465 78.609 61.1454C79.7435 63.7442 80.0583 66.6291 79.5112 69.4126C79.4084 69.8207 79.4361 70.2508 79.5904 70.6421C79.7447 71.0335 80.0178 71.3663 80.3709 71.5933L138.262 108.791C138.696 109.068 139.07 109.43 139.362 109.855C139.654 110.28 139.857 110.759 139.96 111.265ZM158.314 74.8292C156.04 76.517 153.305 77.4661 150.478 77.5489C147.65 77.6318 144.865 76.8444 142.497 75.2927C142.158 75.0448 141.751 74.9099 141.332 74.907C140.913 74.9041 140.503 75.0334 140.162 75.2766L118.042 91.0329L112.739 87.6225L137.68 71.5732C138.033 71.3464 138.305 71.0143 138.459 70.6238C138.614 70.2333 138.642 69.804 138.54 69.3966C138.004 66.6125 138.324 63.7307 139.459 61.1339C140.594 58.5371 142.49 56.3482 144.894 54.858C151.292 50.5307 159.518 51.4857 163.215 56.9805C166.912 62.4754 164.71 70.502 158.314 74.8292Z" fill="#FF9F0D"/>
<path d="M70.8938 3.67709L68.6805 0.334839C63.8507 3.5459 60.2286 8.28405 58.3894 13.7968C56.5503 19.3095 56.5996 25.2807 58.5294 30.7621L62.2983 29.422C60.6665 24.7832 60.6262 19.7303 62.1839 15.0658C63.7415 10.4014 66.8079 6.39291 70.8958 3.67709H70.8938Z" fill="#FF9F0D"/>
<path d="M66.5412 36.6482C65.5785 35.5524 64.7253 34.3644 63.994 33.1013L60.533 35.1075C61.3965 36.6008 62.4044 38.0051 63.5421 39.3003L66.5412 36.6482Z" fill="#FF9F0D"/>
<path d="M130.982 68.6102L136.675 40.0546C141.303 39.6506 145.596 37.4664 148.655 33.9591C151.715 30.4518 153.304 25.8932 153.091 21.237C152.877 16.5808 150.877 12.188 147.509 8.97752C144.141 5.76709 139.667 3.98785 135.021 4.01211C130.978 3.99774 127.051 5.36706 123.889 7.89401C122.241 5.46198 120.026 3.47121 117.436 2.09527C114.846 0.719328 111.96 0 109.029 0C106.098 0 103.212 0.719328 100.622 2.09527C98.0319 3.47121 95.8166 5.46198 94.1692 7.89401C91.0065 5.36706 87.0794 3.99774 83.0365 4.01211C78.407 4.01168 73.9554 5.80153 70.6073 9.00953C67.2591 12.2175 65.272 16.5969 65.0591 21.2371C64.8462 25.8772 66.4238 30.4213 69.464 33.9244C72.5042 37.4275 76.773 39.6202 81.383 40.0466L87.0753 68.6102L90.9942 67.8238L89.8745 62.1905H128.183L127.064 67.8077L130.982 68.6102ZM121.331 58.1782L123.005 46.4262L119.046 45.8564L117.292 58.1782H111.028V36.1105H107.029V58.1782H100.765L99.0118 45.8564L95.053 46.4262L96.7265 58.1782H89.0747L84.9959 37.7155C84.9037 37.2623 84.6583 36.8551 84.3013 36.5626C83.9442 36.2701 83.4974 36.1104 83.0365 36.1105C79.3245 36.1105 75.7646 34.631 73.1399 31.9974C70.5151 29.3638 69.0406 25.7919 69.0406 22.0675C69.0406 18.343 70.5151 14.7711 73.1399 12.1375C75.7646 9.50395 79.3245 8.02441 83.0365 8.02441C84.9419 8.01951 86.8278 8.40892 88.5765 9.16832C90.3251 9.92771 91.8989 11.0408 93.1995 12.4379C93.4217 12.6737 93.6977 12.8519 94.0036 12.9572C94.3096 13.0625 94.6364 13.0917 94.9561 13.0424C95.2758 12.9931 95.5788 12.8667 95.8391 12.6741C96.0994 12.4814 96.3092 12.2283 96.4506 11.9364C97.5928 9.56299 99.3788 7.56082 101.604 6.15975C103.829 4.75868 106.402 4.01548 109.029 4.01548C111.656 4.01548 114.229 4.75868 116.454 6.15975C118.679 7.56082 120.465 9.56299 121.607 11.9364C121.749 12.2283 121.958 12.4814 122.219 12.6741C122.479 12.8667 122.782 12.9931 123.102 13.0424C123.421 13.0917 123.748 13.0625 124.054 12.9572C124.36 12.8519 124.636 12.6737 124.858 12.4379C126.159 11.0408 127.733 9.92771 129.481 9.16832C131.23 8.40892 133.116 8.01951 135.021 8.02441C138.733 8.02441 142.293 9.50395 144.918 12.1375C147.543 14.7711 149.017 18.343 149.017 22.0675C149.017 25.7919 147.543 29.3638 144.918 31.9974C142.293 34.631 138.733 36.1105 135.021 36.1105C134.56 36.1104 134.114 36.2701 133.757 36.5626C133.399 36.8551 133.154 37.2623 133.062 37.7155L128.983 58.1782H121.331Z" fill="#FF9F0D"/>
</svg>
